<?xml version="1.0" encoding="UTF-8" standalone="no"?>
<svg
   xmlns:dc="http://purl.org/dc/elements/1.1/"
   xmlns:cc="http://creativecommons.org/ns#"
   xmlns:rdf="http://www.w3.org/1999/02/22-rdf-syntax-ns#"
   xmlns:svg="http://www.w3.org/2000/svg"
   xmlns="http://www.w3.org/2000/svg"
   xmlns:sodipodi="http://sodipodi.sourceforge.net/DTD/sodipodi-0.dtd"
   xmlns:inkscape="http://www.inkscape.org/namespaces/inkscape"
   id="trend-chart"
   width="660"
   height="400"
   title="Stack Overflow Trends Chart"
   version="1.1"
   sodipodi:docname="download.svg"
   inkscape:version="0.92.3 (2405546, 2018-03-11)"
   inkscape:export-filename="C:\Users\Saeed\Desktop\PRTrend.png"
   inkscape:export-xdpi="195.097"
   inkscape:export-ydpi="195.097">
  <metadata
     id="metadata273">
    <rdf:RDF>
      <cc:Work
         rdf:about="">
        <dc:format>image/svg+xml</dc:format>
        <dc:type
           rdf:resource="http://purl.org/dc/dcmitype/StillImage" />
      </cc:Work>
    </rdf:RDF>
  </metadata>
  <defs
     id="defs271" />
  <sodipodi:namedview
     pagecolor="#ffffff"
     bordercolor="#666666"
     borderopacity="1"
     objecttolerance="10"
     gridtolerance="10"
     guidetolerance="10"
     inkscape:pageopacity="0"
     inkscape:pageshadow="2"
     inkscape:window-width="1366"
     inkscape:window-height="705"
     id="namedview269"
     showgrid="false"
     inkscape:zoom="1.2170808"
     inkscape:cx="339.33757"
     inkscape:cy="188.45246"
     inkscape:window-x="-8"
     inkscape:window-y="-8"
     inkscape:window-maximized="1"
     inkscape:current-layer="g262" />
  <g
     id="g2" />
  <g
     class="chart-area"
     transform="translate(100, 20)"
     id="g234">
    <g
       transform="translate(0,300)"
       fill="none"
       font-size="10"
       font-family="sans-serif"
       text-anchor="middle"
       id="g72">
      <path
         class="domain"
         stroke="#000"
         d="M0.5,6V0.5H410.5V6"
         id="path4" />
      <g
         class="tick"
         opacity="1"
         transform="translate(15.98651804670913,0)"
         id="g10">
        <line
           stroke="#000"
           y2="6"
           x1="0.5"
           x2="0.5"
           id="line6" />
        <text
           fill="#000"
           y="9"
           x="0.5"
           dy="0.71em"
           style="font-size: 12px;"
           id="text8">2009</text>
      </g>
      <g
         class="tick"
         opacity="1"
         transform="translate(54.11390658174097,0)"
         id="g16">
        <line
           stroke="#000"
           y2="6"
           x1="0.5"
           x2="0.5"
           id="line12" />
        <text
           fill="#000"
           y="9"
           x="0.5"
           dy="0.71em"
           style="font-size: 12px;"
           id="text14">2010</text>
      </g>
      <g
         class="tick"
         opacity="1"
         transform="translate(92.24129511677282,0)"
         id="g22">
        <line
           stroke="#000"
           y2="6"
           x1="0.5"
           x2="0.5"
           id="line18" />
        <text
           fill="#000"
           y="9"
           x="0.5"
           dy="0.71em"
           style="font-size: 12px;"
           id="text20">2011</text>
      </g>
      <g
         class="tick"
         opacity="1"
         transform="translate(130.36868365180467,0)"
         id="g28">
        <line
           stroke="#000"
           y2="6"
           x1="0.5"
           x2="0.5"
           id="line24" />
        <text
           fill="#000"
           y="9"
           x="0.5"
           dy="0.71em"
           style="font-size: 12px;"
           id="text26">2012</text>
      </g>
      <g
         class="tick"
         opacity="1"
         transform="translate(168.60053078556263,0)"
         id="g34">
        <line
           stroke="#000"
           y2="6"
           x1="0.5"
           x2="0.5"
           id="line30" />
        <text
           fill="#000"
           y="9"
           x="0.5"
           dy="0.71em"
           style="font-size: 12px;"
           id="text32">2013</text>
      </g>
      <g
         class="tick"
         opacity="1"
         transform="translate(206.7279193205945,0)"
         id="g40">
        <line
           stroke="#000"
           y2="6"
           x1="0.5"
           x2="0.5"
           id="line36" />
        <text
           fill="#000"
           y="9"
           x="0.5"
           dy="0.71em"
           style="font-size: 12px;"
           id="text38">2014</text>
      </g>
      <g
         class="tick"
         opacity="1"
         transform="translate(244.85530785562634,0)"
         id="g46">
        <line
           stroke="#000"
           y2="6"
           x1="0.5"
           x2="0.5"
           id="line42" />
        <text
           fill="#000"
           y="9"
           x="0.5"
           dy="0.71em"
           style="font-size: 12px;"
           id="text44">2015</text>
      </g>
      <g
         class="tick"
         opacity="1"
         transform="translate(282.9826963906582,0)"
         id="g52">
        <line
           stroke="#000"
           y2="6"
           x1="0.5"
           x2="0.5"
           id="line48" />
        <text
           fill="#000"
           y="9"
           x="0.5"
           dy="0.71em"
           style="font-size: 12px;"
           id="text50">2016</text>
      </g>
      <g
         class="tick"
         opacity="1"
         transform="translate(321.2145435244161,0)"
         id="g58">
        <line
           stroke="#000"
           y2="6"
           x1="0.5"
           x2="0.5"
           id="line54" />
        <text
           fill="#000"
           y="9"
           x="0.5"
           dy="0.71em"
           style="font-size: 12px;"
           id="text56">2017</text>
      </g>
      <g
         class="tick"
         opacity="1"
         transform="translate(359.34193205944797,0)"
         id="g64">
        <line
           stroke="#000"
           y2="6"
           x1="0.5"
           x2="0.5"
           id="line60" />
        <text
           fill="#000"
           y="9"
           x="0.5"
           dy="0.71em"
           style="font-size: 12px;"
           id="text62">2018</text>
      </g>
      <g
         class="tick"
         opacity="1"
         transform="translate(397.4693205944798,0)"
         id="g70">
        <line
           stroke="#000"
           y2="6"
           x1="0.5"
           x2="0.5"
           id="line66" />
        <text
           fill="#000"
           y="9"
           x="0.5"
           dy="0.71em"
           style="font-size: 12px;"
           id="text68">2019</text>
      </g>
    </g>
    <g
       class="grid-lines"
       transform="translate(0,300)"
       fill="none"
       font-size="10"
       font-family="sans-serif"
       text-anchor="middle"
       id="g120">
      <path
         class="domain"
         stroke="#000"
         d="M0.5,-300V0.5H410.5V-300"
         id="path74" />
      <g
         class="tick"
         opacity="1"
         transform="translate(15.98651804670913,0)"
         id="g78">
        <line
           stroke="#000"
           y2="-300"
           x1="0.5"
           x2="0.5"
           style="stroke: #ccc; fill: none;"
           id="line76" />
      </g>
      <g
         class="tick"
         opacity="1"
         transform="translate(54.11390658174097,0)"
         id="g82">
        <line
           stroke="#000"
           y2="-300"
           x1="0.5"
           x2="0.5"
           style="stroke: #ccc; fill: none;"
           id="line80" />
      </g>
      <g
         class="tick"
         opacity="1"
         transform="translate(92.24129511677282,0)"
         id="g86">
        <line
           stroke="#000"
           y2="-300"
           x1="0.5"
           x2="0.5"
           style="stroke: #ccc; fill: none;"
           id="line84" />
      </g>
      <g
         class="tick"
         opacity="1"
         transform="translate(130.36868365180467,0)"
         id="g90">
        <line
           stroke="#000"
           y2="-300"
           x1="0.5"
           x2="0.5"
           style="stroke: #ccc; fill: none;"
           id="line88" />
      </g>
      <g
         class="tick"
         opacity="1"
         transform="translate(168.60053078556263,0)"
         id="g94">
        <line
           stroke="#000"
           y2="-300"
           x1="0.5"
           x2="0.5"
           style="stroke: #ccc; fill: none;"
           id="line92" />
      </g>
      <g
         class="tick"
         opacity="1"
         transform="translate(206.7279193205945,0)"
         id="g98">
        <line
           stroke="#000"
           y2="-300"
           x1="0.5"
           x2="0.5"
           style="stroke: #ccc; fill: none;"
           id="line96" />
      </g>
      <g
         class="tick"
         opacity="1"
         transform="translate(244.85530785562634,0)"
         id="g102">
        <line
           stroke="#000"
           y2="-300"
           x1="0.5"
           x2="0.5"
           style="stroke: #ccc; fill: none;"
           id="line100" />
      </g>
      <g
         class="tick"
         opacity="1"
         transform="translate(282.9826963906582,0)"
         id="g106">
        <line
           stroke="#000"
           y2="-300"
           x1="0.5"
           x2="0.5"
           style="stroke: #ccc; fill: none;"
           id="line104" />
      </g>
      <g
         class="tick"
         opacity="1"
         transform="translate(321.2145435244161,0)"
         id="g110">
        <line
           stroke="#000"
           y2="-300"
           x1="0.5"
           x2="0.5"
           style="stroke: #ccc; fill: none;"
           id="line108" />
      </g>
      <g
         class="tick"
         opacity="1"
         transform="translate(359.34193205944797,0)"
         id="g114">
        <line
           stroke="#000"
           y2="-300"
           x1="0.5"
           x2="0.5"
           style="stroke: #ccc; fill: none;"
           id="line112" />
      </g>
      <g
         class="tick"
         opacity="1"
         transform="translate(397.4693205944798,0)"
         id="g118">
        <line
           stroke="#000"
           y2="-300"
           x1="0.5"
           x2="0.5"
           style="stroke: #ccc; fill: none;"
           id="line116" />
      </g>
    </g>
    <text
       x="205"
       y="360"
       class="axis-label x-axis-label"
       style="text-anchor: middle; font-weight: bold;"
       id="text122">Year</text>
    <g
       fill="none"
       font-size="10"
       font-family="sans-serif"
       text-anchor="end"
       id="g180">
      <path
         class="domain"
         stroke="#000"
         d="M-6,300.5H0.5V0.5H-6"
         id="path124" />
      <g
         class="tick"
         opacity="1"
         transform="translate(0,300)"
         id="g130">
        <line
           stroke="#000"
           x2="-6"
           y1="0.5"
           y2="0.5"
           id="line126" />
        <text
           fill="#000"
           x="-9"
           y="0.5"
           dy="0.32em"
           style="font-size: 12px;"
           id="text128">0.00%</text>
      </g>
      <g
         class="tick"
         opacity="1"
         transform="translate(0,262.5)"
         id="g136">
        <line
           stroke="#000"
           x2="-6"
           y1="0.5"
           y2="0.5"
           id="line132" />
        <text
           fill="#000"
           x="-9"
           y="0.5"
           dy="0.32em"
           style="font-size: 12px;"
           id="text134">2.00%</text>
      </g>
      <g
         class="tick"
         opacity="1"
         transform="translate(0,225)"
         id="g142">
        <line
           stroke="#000"
           x2="-6"
           y1="0.5"
           y2="0.5"
           id="line138" />
        <text
           fill="#000"
           x="-9"
           y="0.5"
           dy="0.32em"
           style="font-size: 12px;"
           id="text140">4.00%</text>
      </g>
      <g
         class="tick"
         opacity="1"
         transform="translate(0,187.5)"
         id="g148">
        <line
           stroke="#000"
           x2="-6"
           y1="0.5"
           y2="0.5"
           id="line144" />
        <text
           fill="#000"
           x="-9"
           y="0.5"
           dy="0.32em"
           style="font-size: 12px;"
           id="text146">6.00%</text>
      </g>
      <g
         class="tick"
         opacity="1"
         transform="translate(0,150)"
         id="g154">
        <line
           stroke="#000"
           x2="-6"
           y1="0.5"
           y2="0.5"
           id="line150" />
        <text
           fill="#000"
           x="-9"
           y="0.5"
           dy="0.32em"
           style="font-size: 12px;"
           id="text152">8.00%</text>
      </g>
      <g
         class="tick"
         opacity="1"
         transform="translate(0,112.5)"
         id="g160">
        <line
           stroke="#000"
           x2="-6"
           y1="0.5"
           y2="0.5"
           id="line156" />
        <text
           fill="#000"
           x="-9"
           y="0.5"
           dy="0.32em"
           style="font-size: 12px;"
           id="text158">10.00%</text>
      </g>
      <g
         class="tick"
         opacity="1"
         transform="translate(0,75)"
         id="g166">
        <line
           stroke="#000"
           x2="-6"
           y1="0.5"
           y2="0.5"
           id="line162" />
        <text
           fill="#000"
           x="-9"
           y="0.5"
           dy="0.32em"
           style="font-size: 12px;"
           id="text164">12.00%</text>
      </g>
      <g
         class="tick"
         opacity="1"
         transform="translate(0,37.49999999999994)"
         id="g172">
        <line
           stroke="#000"
           x2="-6"
           y1="0.5"
           y2="0.5"
           id="line168" />
        <text
           fill="#000"
           x="-9"
           y="0.5"
           dy="0.32em"
           style="font-size: 12px;"
           id="text170">14.00%</text>
      </g>
      <g
         class="tick"
         opacity="1"
         transform="translate(0,0)"
         id="g178">
        <line
           stroke="#000"
           x2="-6"
           y1="0.5"
           y2="0.5"
           id="line174" />
        <text
           fill="#000"
           x="-9"
           y="0.5"
           dy="0.32em"
           style="font-size: 12px;"
           id="text176">16.00%</text>
      </g>
    </g>
    <g
       class="grid-lines"
       fill="none"
       font-size="10"
       font-family="sans-serif"
       text-anchor="end"
       id="g220">
      <path
         class="domain"
         stroke="#000"
         d="M410,300.5H0.5V0.5H410"
         id="path182" />
      <g
         class="tick"
         opacity="1"
         transform="translate(0,300)"
         id="g186">
        <line
           stroke="#000"
           x2="410"
           y1="0.5"
           y2="0.5"
           style="stroke: #ccc; fill: none;"
           id="line184" />
      </g>
      <g
         class="tick"
         opacity="1"
         transform="translate(0,262.5)"
         id="g190">
        <line
           stroke="#000"
           x2="410"
           y1="0.5"
           y2="0.5"
           style="stroke: #ccc; fill: none;"
           id="line188" />
      </g>
      <g
         class="tick"
         opacity="1"
         transform="translate(0,225)"
         id="g194">
        <line
           stroke="#000"
           x2="410"
           y1="0.5"
           y2="0.5"
           style="stroke: #ccc; fill: none;"
           id="line192" />
      </g>
      <g
         class="tick"
         opacity="1"
         transform="translate(0,187.5)"
         id="g198">
        <line
           stroke="#000"
           x2="410"
           y1="0.5"
           y2="0.5"
           style="stroke: #ccc; fill: none;"
           id="line196" />
      </g>
      <g
         class="tick"
         opacity="1"
         transform="translate(0,150)"
         id="g202">
        <line
           stroke="#000"
           x2="410"
           y1="0.5"
           y2="0.5"
           style="stroke: #ccc; fill: none;"
           id="line200" />
      </g>
      <g
         class="tick"
         opacity="1"
         transform="translate(0,112.5)"
         id="g206">
        <line
           stroke="#000"
           x2="410"
           y1="0.5"
           y2="0.5"
           style="stroke: #ccc; fill: none;"
           id="line204" />
      </g>
      <g
         class="tick"
         opacity="1"
         transform="translate(0,75)"
         id="g210">
        <line
           stroke="#000"
           x2="410"
           y1="0.5"
           y2="0.5"
           style="stroke: #ccc; fill: none;"
           id="line208" />
      </g>
      <g
         class="tick"
         opacity="1"
         transform="translate(0,37.49999999999994)"
         id="g214">
        <line
           stroke="#000"
           x2="410"
           y1="0.5"
           y2="0.5"
           style="stroke: #ccc; fill: none;"
           id="line212" />
      </g>
      <g
         class="tick"
         opacity="1"
         transform="translate(0,0)"
         id="g218">
        <line
           stroke="#000"
           x2="410"
           y1="0.5"
           y2="0.5"
           style="stroke: #ccc; fill: none;"
           id="line216" />
      </g>
    </g>
    <g
       class="lines"
       id="g232">
      <path
         class="line"
         d="M3.238216560509554,146.95524315020623L6.376326963906582,150.62240663900624L9.614543524416137,156.8485789348125L12.748301486199576,169.593804792525L15.98651804670913,162.7874475924375L19.224734607218682,170.13685660183123L22.149575371549894,166.7122983572625L25.38343949044586,163.92487352844375L28.517197452229297,166.30715375289375L31.755414012738854,158.34165655989375L34.88917197452229,167.76788770970626L38.12738853503184,173.21632200204374L41.365605095541405,170.2592524734375L44.50371549893843,169.46070814141873L47.74193205944798,164.14396938161252L50.87569002123142,165.43157979022502L54.11390658174097,143.2563688915875L57.352123142250534,148.91807477981249L60.276963906581734,139.20522402435L63.51082802547771,153.18058486584374L66.64458598726115,148.29568550026877L69.8828025477707,154.71852065565L73.01656050955414,159.76239669421875L76.25477707006368,160.45671938630625L79.49299363057325,154.55613233893126L82.63110403397027,151.2106299212625L85.86932059447983,148.30840892375622L89.00307855626328,146.04835799351252L92.24129511677282,145.89973585048125L95.47951167728237,143.82909104056873L98.40435244161358,141.68821326676874L101.63821656050956,144.693887132625L104.771974522293,139.41849238029377L108.01019108280254,149.81424990185624L111.14394904458598,147.672516359325L114.38216560509554,147.647847585L117.62038216560511,146.6034137037375L120.75849256900213,141.46638518999998L123.99670912951167,133.59817192681874L127.1304670912951,133.16862394321873L130.36868365180467,135.91820193496875L133.60690021231423,133.4032483381125L136.63619957537156,125.49612616364999L139.87006369426751,124.46593143871877L143.00382165605097,129.54545454545627L146.2420382165605,140.23311897106876L149.37579617834393,137.69442786419998L152.6140127388535,136.92426191049373L155.85222929936307,134.50999977299998L158.99033970276008,130.22959950314998L162.22855626326964,126.59370095786252L165.36231422505307,126.97855029586876L168.60053078556263,136.0164981373125L171.8387473460722,131.51508972268127L174.7635881104034,127.56744372530625L177.99745222929937,121.72734719488125L181.1312101910828,127.05009243140626L184.36942675159236,133.992057548175L187.5031847133758,138.13969629768752L190.74140127388534,133.49072651128125L193.9796178343949,115.3170445307625L197.11772823779194,108.55255682587503L200.3559447983015,99.86288589845626L203.48970276008492,101.5330721711625L206.7279193205945,113.898286299375L209.966135881104,106.82933623389374L212.89097664543525,100.87572977482498L216.1248407643312,97.94344374318752L219.25859872611463,108.12766209851247L222.4968152866242,115.6466282844375L225.63057324840764,115.48874082821249L228.8687898089172,118.832243358075L232.10700636942676,110.30865642615001L235.24511677282376,104.67870929771249L238.48333333333332,97.98210372536249L241.61709129511678,101.22373244818127L244.85530785562634,111.93369151906876L248.0935244161359,111.89684800124999L251.0183651804671,103.49068833592503L254.25222929936302,102.89298717746249L257.38598726114645,111.33366962133749L260.624203821656,120.52508956753127L263.7579617834395,119.2700458704L266.99617834394905,122.12640503743125L270.2343949044586,119.87245587937502L273.3725053078556,112.11788397116248L276.61072186836515,111.37268631785625L279.74447983014863,118.50830174640004L282.9826963906582,126.3252721948875L286.22091295116775,120.8266773163125L289.25021231422505,112.99829794858124L292.484076433121,112.50095618872501L295.61783439490443,129.4144843519875L298.856050955414,136.31325150301873L301.9898089171974,139.88579847391873L305.228025477707,141.67874609955L308.4662420382166,137.74017326473125L311.60435244161357,134.11389792022499L314.8425690021231,130.60761069766875L317.97632696390656,138.07890674883748L321.2145435244161,143.63174935558123L324.45276008492567,142.18527493224377L327.3776008492569,136.8881903906625L330.61146496815286,130.82349663104998L333.74522292993635,133.80573840755625L336.98343949044585,144.417076018125L340.1171974522293,150.598110875625L343.35541401273883,153.2227841498625L346.5936305732484,150.5540978115375L349.7317409766455,143.61883254313125L352.969957537155,140.34861162356248L356.1037154989384,143.27684904800626L359.34193205944797,153.87471929143126L362.5801486199575,150.74547198444375L365.5049893842887,150.94914050540626L368.7388535031847,142.48904594514377L371.87261146496814,147.17321643954375L375.1108280254777,155.67286317315L378.2445859872612,161.02631982391873L381.4828025477707,166.09745332201877L384.72101910828025,159.76324888644376L387.8591295116773,152.32431697704374L391.09734607218684,152.66608366297498L394.23110403397027,150.82394254948127L397.4693205944798,159.62403121119374L400.7075371549894,158.50000592966248L403.6323779193206,157.54220228184374L406.86624203821657,160.38379215973126L410,159.02154842896874"
         data-legend="java"
         style="stroke: rgb(31, 119, 180); fill: none;"
         id="path222" />
      <path
         class="line"
         d="M3.238216560509554,198.0598192512L6.376326963906582,194.57987551867498L9.614543524416137,190.136135658L12.748301486199576,200.90381564666248L15.98651804670913,198.281666878425L19.224734607218682,208.86985711828126L22.149575371549894,202.23101968329374L25.38343949044586,209.31279844925626L28.517197452229297,210.52919779404374L31.755414012738854,216.1286295213L34.88917197452229,214.3934206840875L38.12738853503184,218.92547847258749L41.365605095541405,216.063576401625L44.50371549893843,212.12400799156876L47.74193205944798,213.6399979028625L50.87569002123142,216.97693970694377L54.11390658174097,215.80963904013748L57.352123142250534,204.06761190005625L60.276963906581734,211.9096004931375L63.51082802547771,206.0521555622625L66.64458598726115,212.0986005458625L69.8828025477707,204.38537966353124L73.01656050955414,216.69421487604376L76.25477707006368,221.8084098873L79.49299363057325,215.48115780136877L82.63110403397027,213.307086614175L85.86932059447983,208.7687293598625L89.00307855626328,214.93143269578127L92.24129511677282,217.656705767475L95.47951167728237,221.88064936005003L98.40435244161358,222.11647051831875L101.63821656050956,218.1703652696625L104.771974522293,227.19334481353127L108.01019108280254,227.70092724033748L111.14394904458598,228.27929803689375L114.38216560509554,230.75537056179377L117.62038216560511,227.42822908006875L120.75849256900213,219.4137707047875L123.99670912951167,222.6377465975625L127.1304670912951,221.06572986699376L130.36868365180467,226.53869905312501L133.60690021231423,222.76064581393126L136.63619957537156,226.4593804836L139.87006369426751,222.695021786925L143.00382165605097,230.33041701826875L146.2420382165605,233.05306228190625L149.37579617834393,230.13763561674375L152.6140127388535,231.43346241361877L155.85222929936307,230.10941862841875L158.99033970276008,225.83345020336873L162.22855626326964,220.1458412251875L165.36231422505307,220.90883875740002L168.60053078556263,227.82064928154375L171.8387473460722,225.63165151869373L174.7635881104034,222.27862420528123L177.99745222929937,221.636718545775L181.1312101910828,222.85792487034374L184.36942675159236,226.471745136675L187.5031847133758,230.1581994549L190.74140127388534,230.97673709280002L193.9796178343949,225.60518471683127L197.11772823779194,218.56559661075L200.3559447983015,213.268263032925L203.48970276008492,220.33298176888127L206.7279193205945,223.49503623208125L209.966135881104,223.1873773014375L212.89097664543525,221.69300566565624L216.1248407643312,221.56907909891248L219.25859872611463,227.54078589103125L222.4968152866242,234.23087523735L225.63057324840764,233.35160664586874L228.8687898089172,232.25493841081874L232.10700636942676,229.6113882336L235.24511677282376,225.48730243912502L238.48333333333332,225.67043671940627L241.61709129511678,226.2534269002875L244.85530785562634,230.18160979014374L248.0935244161359,227.51027179374375L251.0183651804671,226.67459765390623L254.25222929936302,228.94174449898125L257.38598726114645,230.6271141634875L260.624203821656,234.54373880407502L263.7579617834395,235.22089536941252L266.99617834394905,238.8342677235L270.2343949044586,237.23164176076875L273.3725053078556,228.60782057418749L276.61072186836515,224.863330352475L279.74447983014863,228.1336476525L282.9826963906582,236.37946208645624L286.22091295116775,234.22523961661875L289.25021231422505,233.93353041298124L292.484076433121,233.66918930497502L295.61783439490443,238.74659537715002L298.856050955414,241.237774461975L301.9898089171974,241.43020166236875L305.228025477707,247.7898787261875L308.4662420382166,243.10355438848126L311.60435244161357,235.35075949149376L314.8425690021231,234.0827456808375L317.97632696390656,238.8161198137875L321.2145435244161,239.29207517968123L324.45276008492567,243.86369378475L327.3776008492569,241.33550366713126L330.61146496815286,237.5812688923875L333.74522292993635,246.01036730338126L336.98343949044585,250.08826199998126L340.1171974522293,246.9103197195L343.35541401273883,248.770956530625L346.5936305732484,247.5910004466375L349.7317409766455,241.70622627901875L352.969957537155,243.37218367275L356.1037154989384,241.6015057867125L359.34193205944797,243.4623129132375L362.5801486199575,243.1164966265875L365.5049893842887,242.79616618254374L368.7388535031847,245.22972571543124L371.87261146496814,246.63495292445623L375.1108280254777,250.46255245280625L378.2445859872612,256.76899111905L381.4828025477707,256.1847299255625L384.72101910828025,254.23049811316875L387.8591295116773,252.5451950523375L391.09734607218684,248.76758422185L394.23110403397027,251.90377298878127L397.4693205944798,253.6490316485625L400.7075371549894,254.57146414935L403.6323779193206,250.6401950968875L406.86624203821657,247.932633620775L410,251.047859731725"
         data-legend="c++"
         style="stroke: rgb(255, 127, 14); fill: none;"
         id="path224" />
      <path
         style="color:#000000;font-style:normal;font-variant:normal;font-weight:normal;font-stretch:normal;font-size:medium;line-height:normal;font-family:sans-serif;font-variant-ligatures:normal;font-variant-position:normal;font-variant-caps:normal;font-variant-numeric:normal;font-variant-alternates:normal;font-feature-settings:normal;text-indent:0;text-align:start;text-decoration:none;text-decoration-line:none;text-decoration-style:solid;text-decoration-color:#000000;letter-spacing:normal;word-spacing:normal;text-transform:none;writing-mode:lr-tb;direction:ltr;text-orientation:mixed;dominant-baseline:auto;baseline-shift:baseline;text-anchor:start;white-space:normal;shape-padding:0;clip-rule:nonzero;display:inline;overflow:visible;visibility:visible;opacity:1;isolation:auto;mix-blend-mode:normal;color-interpolation:sRGB;color-interpolation-filters:linearRGB;solid-color:#000000;solid-opacity:1;vector-effect:none;fill:#2ca02c;fill-opacity:1;fill-rule:nonzero;stroke:#00ba00;stroke-width:2;stroke-linecap:butt;stroke-linejoin:miter;stroke-miterlimit:4;stroke-dasharray:none;stroke-dashoffset:0;stroke-opacity:1;color-rendering:auto;image-rendering:auto;shape-rendering:auto;text-rendering:auto;enable-background:accumulate"
         d="m 406.77734,63.080078 -3.61328,9.00586 -2.93164,8.15625 -2.78125,9.695312 -2.81055,-9.078125 -3.88671,-1.660156 -3.35743,13.529297 -2.80664,3.941406 -2.93554,-1.875 -3.45118,-0.390625 -3.40624,0.974609 -3.25,4.880864 -2.98829,1.10351 -2.8164,1.14258 -3.27735,-6.453126 -3.36914,11.007816 -3.07422,-2.84766 -3.38281,4.86133 -3.30078,1.48633 -3.19141,8.46484 -2.9121,4.34961 -3.33985,-2.53516 -3.36523,8.54297 -2.98828,5.64844 -3.0918,-1.71289 -3.40234,5.1543 -2.96094,1.15429 -3.22071,6.81641 -2.86718,0.67187 -3.43164,-1.11328 -3.42969,7.8125 -3.08594,9.48828 -2.75976,1.54297 -3.40821,-2.98047 -3.36523,5.24415 -2.98047,1.29882 -2.98242,-0.2832 -3.1836,-0.5957 -3.33203,-1.03711 -3.36523,4.31445 -2.82227,1.0918 -3.28711,-2.99219 -3.63867,4.30664 -3.04883,9.78906 -2.70507,-0.25781 -3.29102,-2.23242 -3.53906,0.46484 -3.2168,4.53516 -2.77344,0.0391 -3.32422,-1.42969 -3.24804,1.2793 -3.19727,4.25391 -3.0957,0.39453 -3.3086,1.39453 -3.33789,3.96289 -2.72461,4.31641 -2.92968,-4.84375 -3.67969,-0.82032 -3.36719,2.67969 -2.82617,3.64063 -2.95117,-4.92774 -3.77539,1 -2.93946,4.17774 -3.12695,1.17382 -2.85351,1.54883 -3.26954,-5.27929 -3.70703,4.92187 -3.10937,6.40234 -2.76758,2.17969 -3.17383,-3.77539 -3.50976,1.64063 -3.22266,2.03125 -3.22461,1.24218 -3.17187,4.31641 -2.90821,0.004 -3.14062,3.83593 -2.89844,-1.36328 -3.50195,-1.40039 -3.42383,4.4961 -2.73828,1.97656 -3.23047,-3.10352 -3.44727,2.35547 -3.23437,0.0215 -3.21485,4.43359 -2.9414,-0.3457 -3.43946,0.96679 -2.9746,2.62696 -3.2168,0.0215 -3.14844,2.37695 -2.93164,-1.13671 -3.50586,-0.4336 -3,2.35742 -2.98047,-2.23828 -3.58203,-1.49219 -3.21289,2.76758 -3.08008,-0.19726 -2.89453,0.35351 -3.320311,-4.38086 -3.179688,1.73828 -3.189453,-0.15234 -3.019531,0.99219 -2.855469,-3.14453 -3.710937,-9.1875 -3.261719,9.6914 -2.640625,-3.59961 -3.648438,-7.55859 -3.523437,6.66211 -3.208984,1.65234 -2.726563,3.92578 -2.876953,-5.6914 -2.970703,-3.84961 -3.564453,-3.63672 -3.609375,2.66992 -3.142579,2.90039 -3.320312,2.70703 -3.091797,7.0586 -2.804687,0.81445 -3.044922,-1.81641 -3.06836,-1.98437 -3.654296,-4.13477 -3.185547,5.56446 -3.123047,-2.58594 -2.732422,2.67969 -3.363281,-7.54688 -3.638672,6.875 -2.9726565,1.34571 -2.7871094,1.16992 -2.9355469,-6.32813 -0.90625,0.42188 3.3398438,7.20117 3.6894531,-1.54883 3.2949219,-1.49219 2.837891,-5.36132 3.113281,6.98632 3.117187,-3.05859 3.34375,2.76953 3.083985,-5.38476 2.820312,3.19335 3.199219,2.06836 3.433594,2.04688 3.671875,-1.06445 3.183593,-7.26563 3.15625,-2.57422 3.125,-2.88476 2.865235,-2.11914 2.914062,2.97265 2.876953,3.72656 3.591797,7.10547 3.541016,-5.09961 3.267578,-1.68164 2.744141,-5.1914 2.828125,5.85937 3.835937,5.22656 3.013672,-8.95312 2.765625,6.8457 3.412109,3.75586 3.458985,-1.13672 3.285156,0.15821 2.669922,-1.46094 3.148435,4.1543 3.37305,-0.41407 3.39453,0.21875 3.05469,-2.63281 2.89648,1.20703 3.49414,2.625 3.27735,-2.57617 2.96875,0.36719 3.33593,1.29492 3.32813,-2.51563 3.25977,-0.0195 3.08398,-2.72265 3.0293,-0.85157 3.32617,0.38868 3.26172,-4.4961 3.0332,-0.0215 3.0293,-2.06836 3.24609,3.11719 3.53711,-2.55079 3.05273,-4.00976 2.76563,1.10547 3.57812,1.68359 3.33594,-4.07226 2.94141,-0.004 3.29687,-4.48828 3.04297,-1.17383 3.25196,-2.04883 2.75781,-1.28906 3.30273,3.92969 3.70899,-2.91992 3.16797,-6.52149 2.76953,-3.67773 2.99609,4.83789 3.62305,-1.96485 3.35156,-1.25976 2.9082,-4.13086 2.69336,-0.71484 3.31641,5.5371 3.65039,-4.70117 2.90039,-2.30664 2.79492,0.62305 3.54688,5.86523 3.55273,-5.6289 3.13867,-3.72657 2.95899,-1.24804 3.38086,-0.43164 3.27929,-4.36524 2.60157,-1.02539 3.14257,1.35156 3.49414,-0.0488 3.25977,-4.59375 2.72852,-0.35743 3.18554,2.16211 3.77149,0.35938 3.22851,-10.3711 2.83789,-3.35742 2.97852,2.70899 3.6543,-1.41602 3.11132,-3.98633 2.72657,0.84961 3.28515,0.61328 3.28516,0.31446 3.49609,-1.52539 2.90235,-4.52149 3.0664,2.67969 3.7168,-2.07812 3.19141,-9.8125 3.04687,-6.93946 2.83594,0.91992 3.60937,-0.8457 3.25586,-6.89258 2.88672,-1.125 3.06641,-4.64844 3.17578,1.75977 3.48828,-6.59961 2.90234,-7.36719 3.13672,2.38086 3.56446,-5.32812 3.08593,-8.18555 3.17383,-1.42773 2.88477,-4.14453 3.40234,3.14843 3.10742,-10.160153 2.57227,5.062503 3.65234,-1.48438 3.2793,-1.21094 3.22656,-4.845699 2.86133,-0.818359 3.02344,0.341797 3.54101,2.263672 3.47071,-4.871094 3.11914,-12.574219 2.38086,1.017578 3.66601,11.841797 3.69531,-12.890625 2.91602,-8.107422 2.85547,-7.117187 2.61523,4.371093 0.85938,-0.513671 z"
         id="path226"
         inkscape:connector-curvature="0" />
      <path
         class="line"
         d="M3.238216560509554,78.09855114044998L6.376326963906582,41.960580912881255L9.614543524416137,41.61093861954373L12.748301486199576,50.45921349253126L15.98651804670913,17.1182187777938L19.224734607218682,20.584437941137537L22.149575371549894,7.433032410843737L25.38343949044586,5.510377759931259L28.517197452229297,38.84792897094377L31.755414012738854,40.09238781480002L34.88917197452229,42.71342317389377L38.12738853503184,42.32979936511873L41.365605095541405,50.42368999634999L44.50371549893843,54.00965647372499L47.74193205944798,69.96880488637498L50.87569002123142,74.90191368405002L54.11390658174097,84.86085904417502L57.352123142250534,84.79462520223754L60.276963906581734,81.81463574373748L63.51082802547771,81.9189026228625L66.64458598726115,84.05725567621874L69.8828025477707,91.66291000235626L73.01656050955414,92.57231404959373L76.25477707006368,93.68903305237501L79.49299363057325,102.53269047541875L82.63110403397027,100.68897637796249L85.86932059447983,101.88158862466875L89.00307855626328,107.34391916276249L92.24129511677282,111.72304360346251L95.47951167728237,113.27735194158751L98.40435244161358,113.51046124584377L101.63821656050956,117.48255031456875L104.771974522293,111.85237351064998L108.01019108280254,114.5141804343375L111.14394904458598,120.40080309341249L114.38216560509554,123.44889236529374L117.62038216560511,128.50173619603126L120.75849256900213,129.1025716732125L123.99670912951167,129.09896873225622L127.1304670912951,131.1848977118625L130.36868365180467,130.90070502264376L133.60690021231423,136.71501172164375L136.63619957537156,136.71891264909374L139.87006369426751,137.78390467745623L143.00382165605097,138.0112803659625L146.2420382165605,137.21864951769376L149.37579617834393,136.6410940627125L152.6140127388535,140.899133654625L155.85222929936307,139.47583482781874L158.99033970276008,140.10929016489376L162.22855626326964,144.29961036853123L165.36231422505307,147.54530325444375L168.60053078556263,147.2900669049L171.8387473460722,146.31107744893126L174.7635881104034,145.64193252765L177.99745222929937,147.41272635376876L181.1312101910828,147.72376473967503L184.36942675159236,147.98732480349375L187.5031847133758,148.8365695519125L190.74140127388534,146.87525661931875L193.9796178343949,143.69072351188123L197.11772823779194,145.03419561841878L200.3559447983015,144.34722379284372L203.48970276008492,145.21997890614375L206.7279193205945,147.34632375061875L209.966135881104,148.81214516900621L212.89097664543525,153.43389606281252L216.1248407643312,151.91988759388127L219.25859872611463,151.4273649603L222.4968152866242,154.967997795075L225.63057324840764,154.49523488235002L228.8687898089172,156.0303161436375L232.10700636942676,160.066899569625L235.24511677282376,162.973237315425L238.48333333333332,165.71058209295L241.61709129511678,165.17113635050626L244.85530785562634,166.34217366193124L248.0935244161359,167.618727665175L251.0183651804671,168.09134600184376L254.25222929936302,169.558334652525L257.38598726114645,163.8337100838L260.624203821656,163.6694425488375L263.7579617834395,163.37864848936877L266.99617834394905,162.09229749509998L270.2343949044586,162.77807830145625L273.3725053078556,170.27211231858752L276.61072186836515,168.6136467174L279.74447983014863,166.6989803037L282.9826963906582,171.0049484947125L286.22091295116775,172.01477635783124L289.25021231422505,172.1875093314375L292.484076433121,167.90252994783748L295.61783439490443,165.0437964327L298.856050955414,165.67904831403752L301.9898089171974,171.34231502930626L305.228025477707,167.1873271073625L308.4662420382166,177.07422364981875L311.60435244161357,176.04505341384376L314.8425690021231,173.81369741970002L317.97632696390656,174.90081640498124L321.2145435244161,174.32712716017502L324.45276008492567,175.1736988378125L327.3776008492569,177.60065858405625L330.61146496815286,182.14955164903125L333.74522292993635,177.83847385531874L336.98343949044585,179.45046330500625L340.1171974522293,181.49980706101874L343.35541401273883,182.54208315144373L346.5936305732484,183.946516301925L349.7317409766455,185.6515364697375L352.969957537155,189.51159856700627L356.1037154989384,187.19562782595L359.34193205944797,188.4183404634375L362.5801486199575,193.1802206032125L365.5049893842887,191.868272919375L368.7388535031847,191.67785795625L371.87261146496814,186.99166501648125L375.1108280254777,192.65910680388748L378.2445859872612,192.6154469497125L381.4828025477707,190.19637235798126L384.72101910828025,193.11334398795L387.8591295116773,193.58094331929374L391.09734607218684,196.34068651582498L394.23110403397027,195.51381630048752L397.4693205944798,192.29605136549998L400.7075371549894,194.08902777449998L403.6323779193206,197.89738139728126L406.86624203821657,190.2216747395625L410,190.6285233441375"
         data-legend="c#"
         style="stroke: rgb(214, 39, 40); fill: none;"
         id="path228" />
      <path
         class="line"
         d="M3.238216560509554,298.52065700761875L6.376326963906582,297.2769709543688L9.614543524416137,298.3580128970625L12.748301486199576,297.96484929448127L15.98651804670913,297.7369457502375L19.224734607218682,297.09502496128124L22.149575371549894,297.8725765872563L25.38343949044586,297.16325469245623L28.517197452229297,296.919857628975L31.755414012738854,297.0571448955L34.88917197452229,297.7241604681L38.12738853503184,298.03525749684377L41.365605095541405,297.0799743495937L44.50371549893843,296.35801098841876L47.74193205944798,294.24922012216877L50.87569002123142,294.9455520858375L54.11390658174097,296.09296229079376L57.352123142250534,295.3234540715625L60.276963906581734,295.55755672845L63.51082802547771,292.990654205625L66.64458598726115,292.4873700714375L69.8828025477707,295.06374308023123L73.01656050955414,295.28925619835627L76.25477707006368,295.85661520978124L79.49299363057325,294.91778099025L82.63110403397027,295.216535433075L85.86932059447983,295.781838109125L89.00307855626328,295.15517863588127L92.24129511677282,295.8218054808L95.47951167728237,293.4241449128813L98.40435244161358,291.99432358535626L101.63821656050956,292.5271526495437L104.771974522293,294.30760578523126L108.01019108280254,294.09148569875623L111.14394904458598,294.6832242712687L114.38216560509554,295.49543257815L117.62038216560511,295.1031936225375L120.75849256900213,292.60016534295L123.99670912951167,292.5642939571125L127.1304670912951,292.98482269095L130.36868365180467,292.6024083985312L133.60690021231423,291.60016378175624L136.63619957537156,291.92795854029373L139.87006369426751,290.991208113225L143.00382165605097,292.47790558245L146.2420382165605,292.51382941438123L149.37579617834393,292.63983006215625L152.6140127388535,292.07675565669376L155.85222929936307,292.1539806133875L158.99033970276008,290.54605012723124L162.22855626326964,289.2699144975563L165.36231422505307,290.6666050296L168.60053078556263,291.36366228238126L171.8387473460722,290.11982443875L174.7635881104034,289.27129274300626L177.99745222929937,288.4862401310813L181.1312101910828,288.547032324075L184.36942675159236,289.332443845875L187.5031847133758,289.4512535762062L190.74140127388534,289.9368569853375L193.9796178343949,289.84960708156876L197.11772823779194,288.6882571597125L200.3559447983015,287.21446341740625L203.48970276008492,288.0329968359375L206.7279193205945,288.92652251244374L209.966135881104,287.6339735767125L212.89097664543525,287.1300796641L216.1248407643312,286.36192626035626L219.25859872611463,286.64360926891874L222.4968152866242,288.114013597125L225.63057324840764,288.2558826010125L228.8687898089172,289.42911910089373L232.10700636942676,287.90090219878124L235.24511677282376,286.61649384598127L238.48333333333332,286.1017974110625L241.61709129511678,287.82928739735627L244.85530785562634,288.51589574510626L248.0935244161359,286.67714161696875L251.0183651804671,286.2656907073125L254.25222929936302,284.84248852305L257.38598726114645,285.82802375956874L260.624203821656,287.76443743070627L263.7579617834395,289.14101939881874L266.99617834394905,289.3741887376125L270.2343949044586,290.03693623640623L273.3725053078556,289.29268541870624L276.61072186836515,288.1468608163125L279.74447983014863,290.41854638049375L282.9826963906582,290.29605172119375L286.22091295116775,289.267172523975L289.25021231422505,288.3637164442125L292.484076433121,289.25243891866876L295.61783439490443,288.6435293619L298.856050955414,289.8302038860375L301.9898089171974,290.38739950948127L305.228025477707,290.2903489941938L308.4662420382166,290.6692906462875L311.60435244161357,290.3450826581437L314.8425690021231,291.6191380586625L317.97632696390656,291.4802841610125L321.2145435244161,291.5499689881125L324.45276008492567,290.8485116450062L327.3776008492569,289.9060769346L330.61146496815286,289.8994376614875L333.74522292993635,289.9116919245188L336.98343949044585,291.5403833898375L340.1171974522293,292.32438357391874L343.35541401273883,292.324679521725L346.5936305732484,293.27731874349377L349.7317409766455,292.21862917815L352.969957537155,291.6090408122063L356.1037154989384,293.4536649106125L359.34193205944797,293.1665495740875L362.5801486199575,293.360717124675L365.5049893842887,293.7895475210625L368.7388535031847,292.97965763938123L371.87261146496814,294.00304235900626L375.1108280254777,294.38005794785624L378.2445859872612,294.466512992925L381.4828025477707,295.09693699096874L384.72101910828025,294.3713881174875L387.8591295116773,293.85279325813127L391.09734607218684,293.57151544284375L394.23110403397027,293.915463198225L397.4693205944798,294.74054829511874L400.7075371549894,294.9523849054875L403.6323779193206,294.39846021234376L406.86624203821657,293.614379595L410,293.8848495514875"
         data-legend="matlab"
         style="stroke: rgb(148, 103, 189); fill: none;"
         id="path230" />
    </g>
  </g>
  <g
     transform="translate(20, 150)"
     id="g238">
    <text
       transform="rotate(-90)"
       x="-50"
       y="0"
       dy="1em"
       class="axis-label y-axis-label"
       style="text-anchor: middle; font-weight: bold;"
       id="text236">% of Stack Overflow questions that month</text>
  </g>
  <g
     class="legend"
     transform="translate(530, 30)"
     style="font-size: 12px;"
     id="g266">
    <text
       class="legend-title"
       style="font-weight: bold;"
       id="text240">Tag</text>
    <g
       class="legend-items"
       transform="translate(0,20)"
       id="g262">
      <text
         y="0em"
         x="1em"
         id="text242">c#</text>
      <text
         y="1em"
         x="1em"
         id="text244">python</text>
      <text
         y="2em"
         x="1em"
         id="text246">java</text>
      <text
         y="3em"
         x="1em"
         id="text248">c++</text>
      <text
         y="4em"
         x="1em"
         id="text250">matlab</text>
      <circle
         cy="-0.25em"
         cx="0"
         r="0.4em"
         style="fill: rgb(214, 39, 40);"
         id="circle252" />
      <circle
         cy="0.75em"
         cx="0"
         r="0.4em"
         style="fill: rgb(44, 160, 44);"
         id="circle254" />
      <circle
         cy="1.75em"
         cx="0"
         r="0.4em"
         style="fill: rgb(31, 119, 180);"
         id="circle256" />
      <circle
         cy="2.75em"
         cx="0"
         r="0.4em"
         style="fill: rgb(255, 127, 14);"
         id="circle258" />
      <circle
         cy="3.75em"
         cx="0"
         r="0.4em"
         style="fill: rgb(148, 103, 189);"
         id="circle260" />
    </g>
    <rect
       class="legend-box"
       id="rect264" />
  </g>
</svg>
